<svg width="1759" height="812" viewBox="0 0 1759 812" fill="none" xmlns="http://www.w3.org/2000/svg">
<path d="M43.798 689.953L39.374 686.082L166.011 579.353C223.523 531.058 268.5 487.002 300.943 447.186C333.386 407.37 356.243 368.66 369.515 331.056C383.156 293.452 389.976 254.189 389.976 213.267C389.976 171.239 382.05 135.847 366.197 107.091C350.713 78.335 330.068 56.7679 304.261 42.3899C278.823 27.6433 251.173 20.27 221.311 20.27C166.748 20.27 125.642 34.4636 97.992 62.851C70.7107 91.2383 57.07 124.603 57.07 162.944V202.207C57.07 211.424 55.0423 218.613 50.987 223.774C47.3003 228.567 41.7703 230.963 34.397 230.963C27.761 230.963 22.5997 228.382 18.913 223.221C15.595 218.06 13.936 210.318 13.936 199.995C13.936 167.921 22.784 137.875 40.48 109.856C58.176 81.4686 82.6923 58.6113 114.029 41.2839C145.366 23.588 181.126 14.74 221.311 14.74C263.339 14.74 299.468 23.4036 329.699 40.731C359.93 57.6897 383.156 80.7313 399.377 109.856C415.967 138.981 424.262 171.792 424.262 208.29C424.262 247.369 416.52 285.157 401.036 321.655C385.921 357.784 359.745 396.679 322.51 438.338C285.643 479.997 234.583 528.477 169.329 583.777L43.798 689.953ZM0.664004 771.797C0.664004 744.147 9.32767 719.631 26.655 698.248C43.9823 676.865 66.6553 666.174 94.674 666.174C113.845 666.174 134.306 671.704 156.057 682.764C178.177 693.824 200.85 706.727 224.076 721.474C247.302 735.852 270.159 748.571 292.648 759.631C315.505 770.691 337.257 776.221 357.902 776.221C381.128 776.221 399.746 770.691 413.755 759.631C428.133 748.202 440.115 726.267 449.7 693.824C450.437 692.349 450.99 691.612 451.359 691.612C451.728 691.243 452.096 691.243 452.465 691.612C453.202 691.981 453.571 692.349 453.571 692.718C453.94 693.087 453.94 693.64 453.571 694.377C445.092 723.502 435.322 746.175 424.262 762.396C413.202 778.617 400.667 790.23 386.658 797.235C373.017 803.871 357.349 807.189 339.653 807.189C325.275 807.189 310.897 804.608 296.519 799.447C282.51 794.286 267.21 786.175 250.62 775.115C234.399 764.055 215.597 749.677 194.214 731.981C169.145 710.967 148.684 695.667 132.831 686.082C117.347 676.497 104.444 671.704 94.121 671.704C75.6877 671.704 61.6783 679.262 52.093 694.377C42.5077 709.492 37.715 736.036 37.715 774.009C37.715 781.014 36.7933 786.912 34.95 791.705C33.1067 796.129 30.7103 799.263 27.761 801.106C24.8117 803.318 21.4937 804.424 17.807 804.424C12.277 804.424 8.03733 801.843 5.088 796.682C2.13867 791.152 0.664004 782.857 0.664004 771.797ZM724.61 14.74C774.749 14.74 818.62 30.5926 856.224 62.2979C893.828 93.6346 922.953 138.796 943.598 197.783C964.612 256.401 975.119 326.632 975.119 408.476C975.119 496.219 964.243 570.136 942.492 630.229C921.109 689.953 891.432 735.115 853.459 765.714C815.855 795.945 772.721 811.06 724.057 811.06C670.6 811.06 625.07 794.839 587.466 762.396C550.231 729.953 521.843 683.686 502.304 623.593C483.133 563.5 473.548 491.795 473.548 408.476C473.548 327.738 483.871 258.06 504.516 199.442C525.161 140.455 554.286 94.925 591.89 62.851C629.494 30.777 673.734 14.74 724.61 14.74ZM939.174 425.066C939.174 331.793 930.695 255.479 913.736 196.124C897.146 136.4 872.814 92.16 840.74 63.404C808.666 34.648 769.956 20.27 724.61 20.27C677.052 20.27 637.236 34.648 605.162 63.404C573.457 92.16 549.493 134.188 533.272 189.488C517.419 244.788 509.493 312.254 509.493 391.886C509.493 488.845 517.604 567.924 533.825 629.123C550.415 689.953 574.563 734.562 606.268 762.949C638.342 791.336 677.605 805.53 724.057 805.53C764.979 805.53 801.661 793.18 834.104 768.479C866.547 743.778 892.169 703.594 910.971 647.925C929.773 592.256 939.174 517.97 939.174 425.066ZM1061.88 689.953L1057.46 686.082L1184.09 579.353C1241.6 531.058 1286.58 487.002 1319.02 447.186C1351.47 407.37 1374.32 368.66 1387.6 331.056C1401.24 293.452 1408.06 254.189 1408.06 213.267C1408.06 171.239 1400.13 135.847 1384.28 107.091C1368.79 78.335 1348.15 56.7679 1322.34 42.3899C1296.9 27.6433 1269.25 20.27 1239.39 20.27C1184.83 20.27 1143.72 34.4636 1116.07 62.851C1088.79 91.2383 1075.15 124.603 1075.15 162.944V202.207C1075.15 211.424 1073.12 218.613 1069.07 223.774C1065.38 228.567 1059.85 230.963 1052.48 230.963C1045.84 230.963 1040.68 228.382 1036.99 223.221C1033.68 218.06 1032.02 210.318 1032.02 199.995C1032.02 167.921 1040.87 137.875 1058.56 109.856C1076.26 81.4686 1100.77 58.6113 1132.11 41.2839C1163.45 23.588 1199.21 14.74 1239.39 14.74C1281.42 14.74 1317.55 23.4036 1347.78 40.731C1378.01 57.6897 1401.24 80.7313 1417.46 109.856C1434.05 138.981 1442.34 171.792 1442.34 208.29C1442.34 247.369 1434.6 285.157 1419.12 321.655C1404 357.784 1377.83 396.679 1340.59 438.338C1303.73 479.997 1252.66 528.477 1187.41 583.777L1061.88 689.953ZM1018.75 771.797C1018.75 744.147 1027.41 719.631 1044.74 698.248C1062.06 676.865 1084.74 666.174 1112.76 666.174C1131.93 666.174 1152.39 671.704 1174.14 682.764C1196.26 693.824 1218.93 706.727 1242.16 721.474C1265.38 735.852 1288.24 748.571 1310.73 759.631C1333.59 770.691 1355.34 776.221 1375.98 776.221C1399.21 776.221 1417.83 770.691 1431.84 759.631C1446.21 748.202 1458.2 726.267 1467.78 693.824C1468.52 692.349 1469.07 691.612 1469.44 691.612C1469.81 691.243 1470.18 691.243 1470.55 691.612C1471.28 691.981 1471.65 692.349 1471.65 692.718C1472.02 693.087 1472.02 693.64 1471.65 694.377C1463.17 723.502 1453.4 746.175 1442.34 762.396C1431.28 778.617 1418.75 790.23 1404.74 797.235C1391.1 803.871 1375.43 807.189 1357.73 807.189C1343.36 807.189 1328.98 804.608 1314.6 799.447C1300.59 794.286 1285.29 786.175 1268.7 775.115C1252.48 764.055 1233.68 749.677 1212.3 731.981C1187.23 710.967 1166.77 695.667 1150.91 686.082C1135.43 676.497 1122.53 671.704 1112.2 671.704C1093.77 671.704 1079.76 679.262 1070.17 694.377C1060.59 709.492 1055.8 736.036 1055.8 774.009C1055.8 781.014 1054.87 786.912 1053.03 791.705C1051.19 796.129 1048.79 799.263 1045.84 801.106C1042.89 803.318 1039.58 804.424 1035.89 804.424C1030.36 804.424 1026.12 801.843 1023.17 796.682C1020.22 791.152 1018.75 782.857 1018.75 771.797ZM1489.42 62.2979C1487.94 62.2979 1486.84 61.9293 1486.1 61.192C1485.73 60.4546 1485.55 59.9016 1485.55 59.5329C1485.55 58.7956 1485.92 58.2426 1486.65 57.874C1487.39 57.1366 1488.31 56.7679 1489.42 56.7679L1591.17 52.897C1600.39 52.5283 1607.58 49.9476 1612.74 45.155C1618.27 40.3623 1623.98 28.3806 1629.88 9.20996C1630.99 5.89198 1631.91 3.67999 1632.64 2.57398C1633.75 1.09929 1634.86 0.361945 1635.96 0.361945C1638.54 0.361945 1639.83 2.38962 1639.83 6.44497V769.032C1639.83 772.35 1640.94 775.115 1643.15 777.327C1645.73 779.17 1648.68 780.461 1652 781.198L1753.75 795.023C1756.7 795.76 1758.18 796.498 1758.18 797.235C1758.18 798.341 1757.81 799.078 1757.07 799.447C1756.7 799.816 1755.6 800 1753.75 800H1489.42C1488.31 800 1487.21 799.631 1486.1 798.894C1485.36 798.157 1484.99 797.419 1484.99 796.682C1484.99 795.207 1486.47 794.101 1489.42 793.364L1595.59 781.198C1598.91 780.829 1601.68 779.723 1603.89 777.88C1606.47 776.037 1607.76 773.272 1607.76 769.585V81.653C1607.76 76.123 1606.65 72.252 1604.44 70.04C1602.23 67.4593 1599.28 66.169 1595.59 66.169L1489.42 62.2979Z" fill="#ECF2F1"/>
</svg>
