<?xml version="1.0" encoding="UTF-8"?>
<!DOCTYPE svg PUBLIC "-//W3C//DTD SVG 1.0//EN" "http://www.w3.org/TR/2001/REC-SVG-20010904/DTD/svg10.dtd">
<!-- Creator: CorelDRAW -->
<svg xmlns="http://www.w3.org/2000/svg" xml:space="preserve" width="46.7803mm" height="35.4225mm" version="1.0" style="shape-rendering:geometricPrecision; text-rendering:geometricPrecision; image-rendering:optimizeQuality; fill-rule:evenodd; clip-rule:evenodd"
viewBox="0 0 1260.55 954.5"
 xmlns:xlink="http://www.w3.org/1999/xlink"
 xmlns:xodm="http://www.corel.com/coreldraw/odm/2003">
 <defs>
  <style type="text/css">
   <![CDATA[
    .fil0 {fill:black;fill-rule:nonzero}
   ]]>
  </style>
 </defs>
 <g id="Слой_x0020_1">
  <metadata id="CorelCorpID_0Corel-Layer"/>
  <polygon class="fil0" points="860.84,636.03 630.27,866.6 87.91,324.24 349.99,62.16 910.34,62.16 1172.63,324.24 1059.96,436.91 1147.87,436.91 1260.55,324.23 936.07,0 324.24,0 -0,324.24 630.27,954.5 948.75,636.03 "/>
  <path class="fil0" d="M733.12 366.16l0 19.81 -69.76 0 0 301.44 69.76 0 0 19.81 -203.26 0 0 -19.81 66.32 0 0 -301.44 -66.32 0 0 -19.81 66.32 0 0 -42.21c0,-147.27 61.15,-209.29 143.83,-209.29 33.59,0 72.35,15.51 72.35,55.99 0,17.23 -17.23,28.42 -31.87,28.42 -23.26,0 -35.32,-16.37 -35.32,-39.62 0,-9.47 6.89,-10.33 6.89,-21.52 0,-4.31 -14.64,-5.17 -20.67,-5.17 -41.34,0 -68.03,49.95 -68.03,136.08l0 97.33 69.76 0 0 -0z"/>
  <circle class="fil0" cx="1003.17" cy="532.94" r="31.14"/>
 </g>
</svg>
