<svg width="303" height="57" viewBox="0 0 303 57" fill="none" xmlns="http://www.w3.org/2000/svg"><path d="M19.774 12.8q.667 0 1.058-.23.414-.253.713-.483.3-.23.621-.23.322 0 .506.161.184.16.299.621l1.725 6.509q.092.322-.046.529-.115.207-.391.253-.3.069-.506-.046-.207-.138-.368-.46-.99-2.3-1.794-3.45-.782-1.15-1.702-1.541-.897-.414-2.254-.414H9.953v28.566q0 .437.276.713.3.276.851.322l2.714.276q.39.046.529.207a.49.49 0 0 1 .161.391.46.46 0 0 1-.161.368q-.16.138-.552.138H3.605q-.368 0-.552-.138a.46.46 0 0 1-.161-.368q0-.437.644-.575l1.863-.299q.506-.092.782-.345.276-.254.276-.69v-27.37q0-.437-.276-.69-.276-.276-.782-.345l-1.863-.299q-.645-.138-.644-.575 0-.253.161-.368.185-.138.552-.138zM8.228 29.015h8.464q1.449 0 2.024-.575.599-.575.69-2.231.045-.3.161-.46t.368-.207q.53-.091.69.552l1.679 6.463q.069.3-.023.506-.069.184-.345.253a.7.7 0 0 1-.437-.046 1.25 1.25 0 0 1-.391-.368q-.552-1.08-1.035-1.656-.46-.598-1.035-.805-.575-.23-1.472-.23H8.228zm23.778 3.473h13.57l.161 1.265H31.753zm1.38 12.006a.44.44 0 0 1-.184.368q-.184.138-.575.138h-6.831q-.39 0-.575-.138a.44.44 0 0 1-.184-.368q0-.161.138-.276.138-.138.529-.276l1.058-.299q.598-.207.92-.644.345-.436.713-1.587l8.74-26.197q.23-.621.046-.897t-.989-.437q-.53-.092-.759-.23-.23-.16-.23-.368 0-.23.207-.345.207-.138.575-.138h7.383q.39 0 .575.138a.36.36 0 0 1 .184.322.48.48 0 0 1-.207.391q-.184.138-.736.23-.713.092-.851.299-.115.207.046.736l9.338 27.393q.23.736.667 1.104.46.345 1.288.483.506.092.667.23a.46.46 0 0 1 .161.368.42.42 0 0 1-.207.368q-.184.138-.575.138h-7.935q-.368 0-.575-.138a.44.44 0 0 1-.184-.368q0-.207.161-.345t.529-.207l1.794-.184q.575-.092.644-.437t-.184-1.058l-9.453-28.037.529-.23-9.062 27.301q-.253.736-.23 1.219a1 1 0 0 0 .345.736q.322.276.92.437l1.679.276q.368.069.529.184.16.115.161.345m35.911 1.196q-2.23 0-3.772-.575-1.54-.575-2.46-1.127-.92-.575-1.22-.575-.321 0-.483.345a8 8 0 0 0-.276.782 4 4 0 0 1-.276.782q-.16.345-.483.345a.56.56 0 0 1-.414-.161q-.137-.16-.23-.483l-1.84-7.314q-.069-.3.023-.506a.64.64 0 0 1 .391-.322q.276-.092.483.046.23.116.391.414 1.15 2.53 2.76 4.094t3.473 2.3q1.863.713 3.795.713 2.784 0 4.347-1.564 1.587-1.564 1.61-4.094 0-1.541-.69-2.875-.666-1.357-2.507-2.599-1.84-1.264-5.267-2.484-3.38-1.242-5.428-2.714-2.046-1.472-2.967-3.266-.92-1.817-.92-4.071 0-2.6 1.196-4.531 1.22-1.932 3.335-2.967 2.14-1.058 4.876-1.058 2.254 0 3.657.529 1.404.53 2.208 1.081.805.552 1.242.552.414 0 .53-.529.137-.552.275-1.081.138-.552.575-.552.254 0 .391.161.161.138.3.552l2.276 7.682q.115.322 0 .575a.55.55 0 0 1-.368.345.64.64 0 0 1-.506-.023q-.23-.116-.39-.414-1.335-2.852-2.922-4.508-1.564-1.68-3.358-2.415a9.8 9.8 0 0 0-3.772-.736q-2.898 0-4.692 1.702-1.794 1.68-1.794 4.508 0 1.61.713 3.036.714 1.402 2.507 2.691t5.037 2.53q3.588 1.335 5.635 2.806 2.07 1.449 2.944 3.174.874 1.702.874 3.818-.023 2.185-1.058 4.002-1.011 1.816-2.967 2.898-1.955 1.08-4.784 1.081m19.156-16.583h20.079v1.265H88.453zm1.932 13.478q0 .436.276.69t.782.345l1.863.299q.645.138.644.575a.46.46 0 0 1-.161.368q-.16.138-.552.138h-9.2q-.368 0-.552-.138a.46.46 0 0 1-.161-.368q0-.437.644-.575l1.863-.299q.506-.092.782-.345.276-.254.276-.69v-27.37q0-.437-.276-.69-.276-.276-.782-.345l-1.863-.299q-.645-.115-.644-.575 0-.253.161-.368.184-.138.552-.138h9.2q.39 0 .552.138.16.116.161.368 0 .46-.644.575l-1.863.299q-.506.069-.782.345-.276.254-.276.69zm20.401 0q0 .436.276.69t.782.345l1.863.299q.667.138.667.575a.44.44 0 0 1-.184.368q-.16.138-.552.138h-9.2q-.367 0-.552-.138a.46.46 0 0 1-.161-.368q0-.437.667-.575l1.84-.299q.529-.092.782-.345.276-.254.276-.69v-27.37q0-.437-.276-.69-.253-.276-.782-.345l-1.84-.299q-.667-.115-.667-.575 0-.253.161-.368.185-.138.552-.138h9.2q.392 0 .552.138.184.116.184.368 0 .46-.667.575l-1.863.299q-.506.069-.782.345-.276.254-.276.69zm15.761 0q0 .436.276.69t.782.345l1.84.299q.667.138.667.575a.46.46 0 0 1-.161.368q-.16.138-.552.138h-9.2q-.368 0-.552-.138a.44.44 0 0 1-.184-.368q0-.437.667-.575l1.863-.299q.506-.092.782-.345.276-.254.276-.69v-27.37q0-.437-.276-.69-.276-.276-.782-.345l-1.863-.299q-.667-.115-.667-.575 0-.253.184-.368.185-.138.552-.138h9.2q.392 0 .552.138.16.116.161.368 0 .46-.667.575l-1.84.299q-.506.069-.782.345-.276.254-.276.69zm24.025-30.452q3.495 0 6.371 1.265a14.6 14.6 0 0 1 4.968 3.565q2.115 2.277 3.243 5.359 1.15 3.082 1.15 6.762 0 3.704-1.15 6.762-1.15 3.06-3.266 5.267-2.094 2.208-5.014 3.427-2.898 1.196-6.394 1.196-3.428 0-6.302-1.265a14.8 14.8 0 0 1-4.945-3.542q-2.094-2.277-3.243-5.382-1.127-3.105-1.127-6.785 0-3.703 1.127-6.739 1.149-3.06 3.243-5.267a14.6 14.6 0 0 1 4.991-3.404q2.874-1.22 6.348-1.219m12.144 18.86q0-3.059-.644-5.704-.644-2.668-1.817-4.807-1.15-2.162-2.783-3.703a11.4 11.4 0 0 0-3.611-2.392 10.9 10.9 0 0 0-4.232-.828q-3.267 0-5.796 1.61-2.508 1.61-3.933 4.577-1.404 2.967-1.403 7.13 0 3.06.621 5.727.643 2.669 1.794 4.83 1.149 2.162 2.76 3.726a12 12 0 0 0 3.611 2.369q1.977.828 4.232.828 3.311 0 5.819-1.587 2.53-1.61 3.956-4.6 1.425-3.013 1.426-7.176m17.815 13.501a.42.42 0 0 1-.207.368q-.183.138-.552.138h-8.234q-.39 0-.598-.138a.44.44 0 0 1-.184-.368q0-.368.644-.575l1.771-.437q.966-.276 1.288-.598.322-.345.322-1.127V18.573q0-.575-.161-.989-.16-.414-.828-1.196l-2.093-2.553a2.5 2.5 0 0 1-.299-.414.6.6 0 0 1-.069-.276q0-.184.138-.253.139-.092.391-.092h2.806q.414 0 .69.184.3.16.644.621l20.562 26.634-.69 1.15V16.043q0-.782-.345-1.127-.321-.346-1.311-.598l-2.024-.437q-.644-.207-.644-.575 0-.253.184-.368.208-.138.598-.138h8.211q.392 0 .575.138a.39.39 0 0 1 .207.368q0 .368-.644.575l-1.748.437q-.966.253-1.311.598-.321.345-.322 1.127v24.38q0 .505.115.828t.345.644l1.426 1.863q.254.3.345.483a.8.8 0 0 1 .092.345.35.35 0 0 1-.161.299q-.138.115-.483.115h-3.22q-.621 0-.621-.529 0-.3-.115-.529-.092-.23-.575-.851l-19.251-25.024 1.035-.851v24.541q0 .759.322 1.104t1.311.621l2.024.437q.645.207.644.575m32.536-1.909q0 .436.276.69.275.253.782.345l1.84.299q.666.138.667.575a.46.46 0 0 1-.161.368q-.162.138-.552.138h-9.2q-.369 0-.552-.138a.44.44 0 0 1-.184-.368q0-.437.667-.575l1.863-.299q.506-.092.782-.345.276-.254.276-.69v-27.37q0-.437-.276-.69-.276-.276-.782-.345l-1.863-.299q-.667-.115-.667-.575 0-.253.184-.368.183-.138.552-.138h9.2q.39 0 .552.138.16.116.161.368 0 .46-.667.575l-1.84.299q-.507.069-.782.345-.276.254-.276.69zm20.689 3.105q-2.23 0-3.772-.575-1.54-.575-2.461-1.127-.92-.575-1.219-.575-.321 0-.483.345a8 8 0 0 0-.276.782 3.8 3.8 0 0 1-.276.782q-.16.345-.483.345a.56.56 0 0 1-.414-.161q-.137-.16-.23-.483l-1.84-7.314q-.069-.3.023-.506a.64.64 0 0 1 .391-.322q.276-.092.483.046.23.116.391.414 1.15 2.53 2.76 4.094t3.473 2.3q1.863.713 3.795.713 2.784 0 4.347-1.564 1.587-1.564 1.61-4.094 0-1.541-.69-2.875-.666-1.357-2.507-2.599-1.84-1.264-5.267-2.484-3.38-1.242-5.428-2.714-2.046-1.472-2.967-3.266-.92-1.817-.92-4.071 0-2.6 1.196-4.531 1.22-1.932 3.335-2.967 2.14-1.058 4.876-1.058 2.255 0 3.657.529 1.404.53 2.208 1.081.806.552 1.242.552.415 0 .529-.529.138-.552.276-1.081.138-.552.575-.552.253 0 .391.161.161.138.299.552l2.277 7.682q.115.322 0 .575a.55.55 0 0 1-.368.345.64.64 0 0 1-.506-.023q-.23-.116-.391-.414-1.334-2.852-2.921-4.508-1.563-1.68-3.358-2.415a9.8 9.8 0 0 0-3.772-.736q-2.898 0-4.692 1.702-1.794 1.68-1.794 4.508 0 1.61.713 3.036.714 1.402 2.507 2.691t5.037 2.53q3.588 1.335 5.635 2.806 2.07 1.449 2.944 3.174.874 1.702.874 3.818-.023 2.185-1.058 4.002-1.011 1.816-2.967 2.898-1.955 1.08-4.784 1.081m17.143-32.89h16.974q.621 0 .966-.23.368-.253.644-.483a.95.95 0 0 1 .621-.23q.368 0 .575.184.23.16.322.621l1.587 7.153q.091.368-.023.621-.115.23-.414.276a.8.8 0 0 1-.506-.069q-.207-.138-.345-.483-1.012-2.69-1.771-3.979-.76-1.311-1.633-1.725-.875-.437-2.231-.437h-4.485v28.566q0 .436.276.69.275.253.782.345l1.84.299q.667.138.667.575 0 .506-.713.506h-9.2q-.369 0-.552-.138a.44.44 0 0 1-.184-.368q0-.437.667-.575l1.863-.299q.506-.092.782-.345.276-.254.276-.69V14.019h-4.508q-1.335 0-2.231.437-.874.437-1.633 1.748-.76 1.311-1.771 3.956-.115.345-.345.483a.8.8 0 0 1-.506.069q-.3-.046-.414-.276-.092-.254-.023-.621l1.587-7.153q.114-.46.322-.621a.9.9 0 0 1 .575-.184.9.9 0 0 1 .621.23q.252.23.598.483.345.23.943.23m28.627 19.688h13.57l.161 1.265h-13.984zm1.38 12.006a.44.44 0 0 1-.184.368q-.185.138-.575.138h-6.831q-.392 0-.575-.138a.44.44 0 0 1-.184-.368q0-.161.138-.276.138-.138.529-.276l1.058-.299q.597-.207.92-.644.344-.436.713-1.587l8.74-26.197q.23-.621.046-.897-.185-.276-.989-.437-.53-.092-.759-.23-.23-.16-.23-.368 0-.23.207-.345.206-.138.575-.138h7.383q.39 0 .575.138a.36.36 0 0 1 .184.322.48.48 0 0 1-.207.391q-.184.138-.736.23-.714.092-.851.299-.116.207.046.736l9.338 27.393q.23.736.667 1.104.46.345 1.288.483.505.092.667.23a.46.46 0 0 1 .161.368.42.42 0 0 1-.207.368q-.185.138-.575.138h-7.935q-.369 0-.575-.138a.44.44 0 0 1-.184-.368q0-.207.161-.345.16-.138.529-.207l1.794-.184q.575-.092.644-.437.068-.345-.184-1.058l-9.453-28.037.529-.23-9.062 27.301q-.254.736-.23 1.219.022.46.345.736.321.276.92.437l1.679.276q.367.069.529.184.16.115.161.345" fill="#2D7064"/></svg>