<svg width="8" height="9" viewBox="0 0 8 9" fill="none" xmlns="http://www.w3.org/2000/svg"><path d="M1.007 0a.95.95 0 0 0-.385.082 1 1 0 0 0-.327.234c-.093.1-.168.22-.218.35A1.2 1.2 0 0 0 0 1.08c0 .597.45 1.092 1.006 1.092s1.007-.495 1.007-1.091a1.2 1.2 0 0 0-.077-.414 1.1 1.1 0 0 0-.218-.35Q1.577.166 1.392.082A.95.95 0 0 0 1.007 0m4.911 2.864c-.845 0-1.329.474-1.561.946h-.024v-.82H2.667V9h1.736V6.026c0-.784.055-1.542.958-1.542.89 0 .903.894.903 1.591V9H8V5.7c0-1.616-.323-2.836-2.082-2.836m-5.78.126V9h1.737V2.99z" fill="#191919"/></svg>