<svg width="18" height="16" viewBox="0 0 18 16" fill="none" xmlns="http://www.w3.org/2000/svg"><path d="M4.821 0C2.161 0 0 2.26 0 4.98c0 .95.417 1.772.804 2.367q.343.529.783.974l6.95 7.202L9 16l.463-.477 6.95-7.202S18 6.876 18 4.981C18 2.258 15.838 0 13.179 0 10.97 0 9.549 1.372 9 1.951 8.45 1.372 7.029 0 4.821 0m0 1.328c1.921 0 3.697 1.93 3.697 1.93l.482.56.482-.56s1.776-1.93 3.697-1.93c1.956 0 3.535 1.658 3.535 3.652 0 1.025-1.205 2.408-1.205 2.408L9 14.11 2.491 7.388s-.311-.31-.623-.79c-.311-.478-.582-1.104-.582-1.618 0-1.994 1.58-3.652 3.535-3.652" fill="#191919"/></svg>