<svg width="10" height="8" viewBox="0 0 10 8" fill="none" xmlns="http://www.w3.org/2000/svg"><path d="M10 .949a4.1 4.1 0 0 1-1.178.317c.428-.252.748-.65.901-1.117a4.2 4.2 0 0 1-1.302.49A2.06 2.06 0 0 0 7.373.05 2.1 2.1 0 0 0 6.17.141a2.05 2.05 0 0 0-.943.743 2 2 0 0 0-.3 1.596 5.9 5.9 0 0 1-2.344-.611A5.8 5.8 0 0 1 .696.37a2 2 0 0 0-.278 1.016c0 .7.361 1.318.913 1.68a2.1 2.1 0 0 1-.93-.253v.026c0 .466.164.918.464 1.28.3.36.718.608 1.182.7a2.1 2.1 0 0 1-.926.035c.13.401.386.752.73 1.004.343.251.758.39 1.186.4A4.18 4.18 0 0 1 0 7.091 5.87 5.87 0 0 0 3.145 8c3.774 0 5.838-3.077 5.838-5.746q0-.13-.007-.261A4.2 4.2 0 0 0 10 .949" fill="#191919"/></svg>