<svg width="9" height="9" viewBox="0 0 9 9" fill="none" xmlns="http://www.w3.org/2000/svg"><path d="M2.646 0A2.657 2.657 0 0 0 0 2.646v3.708A2.657 2.657 0 0 0 2.646 9h3.708A2.657 2.657 0 0 0 9 6.354V2.647A2.657 2.657 0 0 0 6.354 0zm0 .818h3.708a1.826 1.826 0 0 1 1.828 1.828v3.708a1.826 1.826 0 0 1-1.828 1.828H2.647A1.826 1.826 0 0 1 .818 6.354V2.647A1.826 1.826 0 0 1 2.646.818m4.27.895a.37.37 0 0 0-.37.37.37.37 0 0 0 .512.344.37.37 0 0 0 .201-.485.37.37 0 0 0-.343-.229M4.5 2.045A2.46 2.46 0 0 0 2.045 4.5 2.46 2.46 0 0 0 4.5 6.955 2.46 2.46 0 0 0 6.955 4.5 2.46 2.46 0 0 0 4.5 2.045m0 .819c.91 0 1.636.727 1.636 1.636A1.63 1.63 0 0 1 4.5 6.136 1.63 1.63 0 0 1 2.864 4.5c0-.91.727-1.636 1.636-1.636" fill="#191919"/></svg>